<svg width="1858" height="772" viewBox="0 0 1858 772" fill="none" xmlns="http://www.w3.org/2000/svg">
<path d="M744.753 7.29516C746.791 7.29516 748.443 5.66198 748.443 3.64758C748.443 1.63306 746.791 0 744.753 0C742.716 0 741.064 1.63306 741.064 3.64758C741.064 5.66198 742.716 7.29516 744.753 7.29516Z" fill="white"/>
<path d="M422.712 8.33728C422.712 10.6395 420.824 12.5059 418.496 12.5059C416.167 12.5059 414.279 10.6395 414.279 8.33728C414.279 6.03503 416.167 4.1687 418.496 4.1687C420.824 4.1687 422.712 6.03503 422.712 8.33728Z" fill="white"/>
<path d="M275.659 35.4333C276.532 35.4333 277.24 34.7335 277.24 33.8701C277.24 33.0068 276.532 32.3069 275.659 32.3069C274.786 32.3069 274.078 33.0068 274.078 33.8701C274.078 34.7335 274.786 35.4333 275.659 35.4333Z" fill="white"/>
<path d="M89.6024 193.841C89.6024 194.417 89.1303 194.884 88.5482 194.884C87.966 194.884 87.4941 194.417 87.4941 193.841C87.4941 193.266 87.966 192.799 88.5482 192.799C89.1303 192.799 89.6024 193.266 89.6024 193.841Z" fill="white"/>
<path d="M424.293 141.212C424.293 142.364 423.349 143.297 422.185 143.297C421.021 143.297 420.077 142.364 420.077 141.212C420.077 140.061 421.021 139.128 422.185 139.128C423.349 139.128 424.293 140.061 424.293 141.212Z" fill="white"/>
<path d="M722.089 78.1618C722.089 79.313 721.145 80.2462 719.981 80.2462C718.817 80.2462 717.873 79.313 717.873 78.1618C717.873 77.0107 718.817 76.0775 719.981 76.0775C721.145 76.0775 722.089 77.0107 722.089 78.1618Z" fill="white"/>
<path d="M820.652 69.8246C820.652 70.4001 820.18 70.8668 819.598 70.8668C819.016 70.8668 818.544 70.4001 818.544 69.8246C818.544 69.249 819.016 68.7824 819.598 68.7824C820.18 68.7824 820.652 69.249 820.652 69.8246Z" fill="white"/>
<path d="M742.118 130.27C742.118 130.845 741.646 131.312 741.064 131.312C740.482 131.312 740.01 130.845 740.01 130.27C740.01 129.694 740.482 129.228 741.064 129.228C741.646 129.228 742.118 129.694 742.118 130.27Z" fill="white"/>
<path d="M638.285 61.4873C638.867 61.4873 639.339 61.0207 639.339 60.4452C639.339 59.8696 638.867 59.403 638.285 59.403C637.703 59.403 637.231 59.8696 637.231 60.4452C637.231 61.0207 637.703 61.4873 638.285 61.4873Z" fill="white"/>
<path d="M222.425 122.975C223.007 122.975 223.479 122.508 223.479 121.932C223.479 121.357 223.007 120.89 222.425 120.89C221.842 120.89 221.37 121.357 221.37 121.932C221.37 122.508 221.842 122.975 222.425 122.975Z" fill="white"/>
<path d="M34.7868 60.4452C35.369 60.4452 35.8409 59.9786 35.8409 59.403C35.8409 58.8275 35.369 58.3608 34.7868 58.3608C34.2046 58.3608 33.7326 58.8275 33.7326 59.403C33.7326 59.9786 34.2046 60.4452 34.7868 60.4452Z" fill="white"/>
<path d="M530.762 38.0388C532.218 38.0388 533.397 36.8723 533.397 35.4333C533.397 33.9945 532.218 32.828 530.762 32.828C529.307 32.828 528.127 33.9945 528.127 35.4333C528.127 36.8723 529.307 38.0388 530.762 38.0388Z" fill="white"/>
<path d="M135.458 60.4452C137.495 60.4452 139.147 58.8121 139.147 56.7976C139.147 54.7832 137.495 53.15 135.458 53.15C133.42 53.15 131.768 54.7832 131.768 56.7976C131.768 58.8121 133.42 60.4452 135.458 60.4452Z" fill="white"/>
<path d="M2.10828 131.312C3.2727 131.312 4.21655 130.379 4.21655 129.228C4.21655 128.076 3.2727 127.143 2.10828 127.143C0.943969 127.143 0 128.076 0 129.228C0 130.379 0.943969 131.312 2.10828 131.312Z" fill="white"/>
<path d="M241.399 169.872C242.564 169.872 243.507 168.939 243.507 167.787C243.507 166.636 242.564 165.703 241.399 165.703C240.235 165.703 239.291 166.636 239.291 167.787C239.291 168.939 240.235 169.872 241.399 169.872Z" fill="white"/>
<path d="M624.054 215.727C625.218 215.727 626.162 214.793 626.162 213.642C626.162 212.491 625.218 211.558 624.054 211.558C622.889 211.558 621.946 212.491 621.946 213.642C621.946 214.793 622.889 215.727 624.054 215.727Z" fill="white"/>
<path d="M932.391 145.381C933.556 145.381 934.5 144.448 934.5 143.297C934.5 142.146 933.556 141.212 932.391 141.212C931.227 141.212 930.283 142.146 930.283 143.297C930.283 144.448 931.227 145.381 932.391 145.381Z" fill="white"/>
<path d="M558.697 120.89C559.861 120.89 560.805 119.957 560.805 118.806C560.805 117.655 559.861 116.722 558.697 116.722C557.532 116.722 556.589 117.655 556.589 118.806C556.589 119.957 557.532 120.89 558.697 120.89Z" fill="white"/>
<path d="M932.119 326.029C932.119 324.878 933.063 323.944 934.227 323.944C935.392 323.944 936.335 324.878 936.335 326.029C936.335 327.18 935.392 328.113 934.227 328.113C933.063 328.113 932.119 327.18 932.119 326.029Z" fill="white"/>
<path d="M870.978 345.83C870.978 344.966 871.686 344.266 872.56 344.266C873.433 344.266 874.141 344.966 874.141 345.83C874.141 346.693 873.433 347.393 872.56 347.393C871.686 347.393 870.978 346.693 870.978 345.83Z" fill="white"/>
<path d="M681.759 265.583C681.759 264.72 682.467 264.02 683.341 264.02C684.214 264.02 684.922 264.72 684.922 265.583C684.922 266.447 684.214 267.147 683.341 267.147C682.467 267.147 681.759 266.447 681.759 265.583Z" fill="white"/>
<path d="M869.397 105.612C869.397 105.037 869.869 104.57 870.451 104.57C871.034 104.57 871.506 105.037 871.506 105.612C871.506 106.188 871.034 106.654 870.451 106.654C869.869 106.654 869.397 106.188 869.397 105.612Z" fill="white"/>
<path d="M534.706 158.241C534.706 157.09 535.65 156.157 536.814 156.157C537.979 156.157 538.923 157.09 538.923 158.241C538.923 159.392 537.979 160.325 536.814 160.325C535.65 160.325 534.706 159.392 534.706 158.241Z" fill="white"/>
<path d="M236.91 221.292C236.91 220.141 237.854 219.207 239.018 219.207C240.183 219.207 241.127 220.141 241.127 221.292C241.127 222.443 240.183 223.376 239.018 223.376C237.854 223.376 236.91 222.443 236.91 221.292Z" fill="white"/>
<path d="M86.1674 326.029C86.1674 324.302 87.5833 322.902 89.3299 322.902C91.0765 322.902 92.4924 324.302 92.4924 326.029C92.4924 327.755 91.0765 329.155 89.3299 329.155C87.5833 329.155 86.1674 327.755 86.1674 326.029Z" fill="white"/>
<path d="M331.783 330.197C331.783 329.622 332.255 329.155 332.837 329.155C333.42 329.155 333.892 329.622 333.892 330.197C333.892 330.773 333.42 331.239 332.837 331.239C332.255 331.239 331.783 330.773 331.783 330.197Z" fill="white"/>
<path d="M138.348 229.629C138.348 229.053 138.82 228.587 139.402 228.587C139.984 228.587 140.456 229.053 140.456 229.629C140.456 230.204 139.984 230.671 139.402 230.671C138.82 230.671 138.348 230.204 138.348 229.629Z" fill="white"/>
<path d="M216.881 169.184C216.881 168.608 217.353 168.142 217.936 168.142C218.518 168.142 218.99 168.608 218.99 169.184C218.99 169.759 218.518 170.226 217.936 170.226C217.353 170.226 216.881 169.759 216.881 169.184Z" fill="white"/>
<path d="M229.004 373.968C229.004 373.392 229.476 372.926 230.058 372.926C230.641 372.926 231.112 373.392 231.112 373.968C231.112 374.543 230.641 375.01 230.058 375.01C229.476 375.01 229.004 374.543 229.004 373.968Z" fill="white"/>
<path d="M319.661 239.008C319.661 238.433 320.133 237.966 320.715 237.966C321.297 237.966 321.769 238.433 321.769 239.008C321.769 239.584 321.297 240.051 320.715 240.051C320.133 240.051 319.661 239.584 319.661 239.008Z" fill="white"/>
<path d="M735.521 177.521C735.521 176.945 735.993 176.479 736.575 176.479C737.157 176.479 737.629 176.945 737.629 177.521C737.629 178.097 737.157 178.563 736.575 178.563C735.993 178.563 735.521 178.097 735.521 177.521Z" fill="white"/>
<path d="M923.159 240.051C923.159 239.475 923.631 239.008 924.213 239.008C924.795 239.008 925.267 239.475 925.267 240.051C925.267 240.626 924.795 241.093 924.213 241.093C923.631 241.093 923.159 240.626 923.159 240.051Z" fill="white"/>
<path d="M425.602 264.02C425.602 262.581 426.782 261.415 428.238 261.415C429.693 261.415 430.873 262.581 430.873 264.02C430.873 265.459 429.693 266.626 428.238 266.626C426.782 266.626 425.602 265.459 425.602 264.02Z" fill="white"/>
<path d="M502.555 321.86C502.555 320.709 503.499 319.776 504.663 319.776C505.827 319.776 506.771 320.709 506.771 321.86C506.771 323.011 505.827 323.944 504.663 323.944C503.499 323.944 502.555 323.011 502.555 321.86Z" fill="white"/>
<path d="M536.287 291.116C536.287 288.814 538.175 286.948 540.504 286.948C542.833 286.948 544.721 288.814 544.721 291.116C544.721 293.419 542.833 295.285 540.504 295.285C538.175 295.285 536.287 293.419 536.287 291.116Z" fill="white"/>
<path d="M658.041 377.094C658.041 375.943 658.985 375.01 660.149 375.01C661.314 375.01 662.258 375.943 662.258 377.094C662.258 378.245 661.314 379.179 660.149 379.179C658.985 379.179 658.041 378.245 658.041 377.094Z" fill="white"/>
<path d="M819.852 242.656C819.852 240.641 821.504 239.008 823.542 239.008C825.58 239.008 827.231 240.641 827.231 242.656C827.231 244.67 825.58 246.303 823.542 246.303C821.504 246.303 819.852 244.67 819.852 242.656Z" fill="white"/>
<path d="M210.557 295.806C210.557 293.791 212.209 292.158 214.246 292.158C216.284 292.158 217.936 293.791 217.936 295.806C217.936 297.82 216.284 299.453 214.246 299.453C212.209 299.453 210.557 297.82 210.557 295.806Z" fill="white"/>
<path d="M717.6 129.582C716.436 129.582 715.492 130.515 715.492 131.666C715.492 132.817 716.436 133.75 717.6 133.75C718.765 133.75 719.709 132.817 719.709 131.666C719.709 130.515 718.765 129.582 717.6 129.582Z" fill="white"/>
<path d="M334.946 83.7268C333.781 83.7268 332.837 84.66 332.837 85.8111C332.837 86.9622 333.781 87.8955 334.946 87.8955C336.11 87.8955 337.054 86.9622 337.054 85.8111C337.054 84.66 336.11 83.7268 334.946 83.7268Z" fill="white"/>
<path d="M26.6083 154.072C25.4438 154.072 24.5 155.006 24.5 156.157C24.5 157.308 25.4438 158.241 26.6083 158.241C27.7727 158.241 28.7165 157.308 28.7165 156.157C28.7165 155.006 27.7727 154.072 26.6083 154.072Z" fill="white"/>
<path d="M400.303 178.563C399.138 178.563 398.194 179.496 398.194 180.647C398.194 181.799 399.138 182.732 400.303 182.732C401.467 182.732 402.411 181.799 402.411 180.647C402.411 179.496 401.467 178.563 400.303 178.563Z" fill="white"/>
<path d="M451.956 384.389C449.627 384.389 447.739 386.256 447.739 388.558C447.739 390.86 449.627 392.727 451.956 392.727C454.285 392.727 456.172 390.86 456.172 388.558C456.172 386.256 454.285 384.389 451.956 384.389Z" fill="white"/>
<path d="M631.16 339.577C629.996 339.577 629.052 340.51 629.052 341.661C629.052 342.812 629.996 343.745 631.16 343.745C632.325 343.745 633.269 342.812 633.269 341.661C633.269 340.51 632.325 339.577 631.16 339.577Z" fill="white"/>
<path d="M760.293 318.733C759.711 318.733 759.239 319.2 759.239 319.776C759.239 320.351 759.711 320.818 760.293 320.818C760.875 320.818 761.347 320.351 761.347 319.776C761.347 319.2 760.875 318.733 760.293 318.733Z" fill="white"/>
<path d="M744.753 386.295C746.791 386.295 748.443 384.662 748.443 382.647C748.443 380.633 746.791 379 744.753 379C742.716 379 741.064 380.633 741.064 382.647C741.064 384.662 742.716 386.295 744.753 386.295Z" fill="white"/>
<path d="M422.712 387.337C422.712 389.639 420.824 391.506 418.496 391.506C416.167 391.506 414.279 389.639 414.279 387.337C414.279 385.035 416.167 383.169 418.496 383.169C420.824 383.169 422.712 385.035 422.712 387.337Z" fill="white"/>
<path d="M275.659 414.433C276.532 414.433 277.24 413.733 277.24 412.87C277.24 412.007 276.532 411.307 275.659 411.307C274.786 411.307 274.078 412.007 274.078 412.87C274.078 413.733 274.786 414.433 275.659 414.433Z" fill="white"/>
<path d="M89.6024 572.841C89.6024 573.417 89.1303 573.883 88.5482 573.883C87.966 573.883 87.4941 573.417 87.4941 572.841C87.4941 572.266 87.966 571.799 88.5482 571.799C89.1303 571.799 89.6024 572.266 89.6024 572.841Z" fill="white"/>
<path d="M424.293 520.212C424.293 521.363 423.349 522.297 422.185 522.297C421.021 522.297 420.077 521.363 420.077 520.212C420.077 519.061 421.021 518.128 422.185 518.128C423.349 518.128 424.293 519.061 424.293 520.212Z" fill="white"/>
<path d="M722.089 457.162C722.089 458.313 721.145 459.246 719.981 459.246C718.817 459.246 717.873 458.313 717.873 457.162C717.873 456.011 718.817 455.077 719.981 455.077C721.145 455.077 722.089 456.011 722.089 457.162Z" fill="white"/>
<path d="M820.652 448.824C820.652 449.4 820.18 449.867 819.598 449.867C819.016 449.867 818.544 449.4 818.544 448.824C818.544 448.249 819.016 447.782 819.598 447.782C820.18 447.782 820.652 448.249 820.652 448.824Z" fill="white"/>
<path d="M742.118 509.27C742.118 509.845 741.646 510.312 741.064 510.312C740.482 510.312 740.01 509.845 740.01 509.27C740.01 508.694 740.482 508.227 741.064 508.227C741.646 508.227 742.118 508.694 742.118 509.27Z" fill="white"/>
<path d="M638.285 440.487C638.867 440.487 639.339 440.021 639.339 439.445C639.339 438.869 638.867 438.403 638.285 438.403C637.703 438.403 637.231 438.869 637.231 439.445C637.231 440.021 637.703 440.487 638.285 440.487Z" fill="white"/>
<path d="M222.425 501.974C223.007 501.974 223.479 501.508 223.479 500.932C223.479 500.357 223.007 499.89 222.425 499.89C221.842 499.89 221.37 500.357 221.37 500.932C221.37 501.508 221.842 501.974 222.425 501.974Z" fill="white"/>
<path d="M34.7868 439.445C35.369 439.445 35.8409 438.978 35.8409 438.403C35.8409 437.827 35.369 437.361 34.7868 437.361C34.2046 437.361 33.7326 437.827 33.7326 438.403C33.7326 438.978 34.2046 439.445 34.7868 439.445Z" fill="white"/>
<path d="M530.762 417.039C532.218 417.039 533.397 415.872 533.397 414.433C533.397 412.994 532.218 411.828 530.762 411.828C529.307 411.828 528.127 412.994 528.127 414.433C528.127 415.872 529.307 417.039 530.762 417.039Z" fill="white"/>
<path d="M135.458 439.445C137.495 439.445 139.147 437.812 139.147 435.797C139.147 433.783 137.495 432.15 135.458 432.15C133.42 432.15 131.768 433.783 131.768 435.797C131.768 437.812 133.42 439.445 135.458 439.445Z" fill="white"/>
<path d="M2.10828 510.312C3.2727 510.312 4.21655 509.379 4.21655 508.227C4.21655 507.076 3.2727 506.143 2.10828 506.143C0.943969 506.143 0 507.076 0 508.227C0 509.379 0.943969 510.312 2.10828 510.312Z" fill="white"/>
<path d="M241.399 548.872C242.564 548.872 243.507 547.938 243.507 546.787C243.507 545.636 242.564 544.703 241.399 544.703C240.235 544.703 239.291 545.636 239.291 546.787C239.291 547.938 240.235 548.872 241.399 548.872Z" fill="white"/>
<path d="M624.054 594.727C625.218 594.727 626.162 593.793 626.162 592.642C626.162 591.491 625.218 590.558 624.054 590.558C622.889 590.558 621.946 591.491 621.946 592.642C621.946 593.793 622.889 594.727 624.054 594.727Z" fill="white"/>
<path d="M932.391 524.381C933.556 524.381 934.5 523.448 934.5 522.297C934.5 521.145 933.556 520.212 932.391 520.212C931.227 520.212 930.283 521.145 930.283 522.297C930.283 523.448 931.227 524.381 932.391 524.381Z" fill="white"/>
<path d="M558.697 499.89C559.861 499.89 560.805 498.957 560.805 497.806C560.805 496.655 559.861 495.722 558.697 495.722C557.532 495.722 556.589 496.655 556.589 497.806C556.589 498.957 557.532 499.89 558.697 499.89Z" fill="white"/>
<path d="M932.119 705.028C932.119 703.877 933.063 702.944 934.227 702.944C935.392 702.944 936.335 703.877 936.335 705.028C936.335 706.18 935.392 707.113 934.227 707.113C933.063 707.113 932.119 706.18 932.119 705.028Z" fill="white"/>
<path d="M870.978 724.829C870.978 723.966 871.686 723.266 872.56 723.266C873.433 723.266 874.141 723.966 874.141 724.829C874.141 725.693 873.433 726.393 872.56 726.393C871.686 726.393 870.978 725.693 870.978 724.829Z" fill="white"/>
<path d="M681.759 644.583C681.759 643.72 682.467 643.02 683.341 643.02C684.214 643.02 684.922 643.72 684.922 644.583C684.922 645.447 684.214 646.146 683.341 646.146C682.467 646.146 681.759 645.447 681.759 644.583Z" fill="white"/>
<path d="M869.397 484.612C869.397 484.036 869.869 483.57 870.451 483.57C871.034 483.57 871.506 484.036 871.506 484.612C871.506 485.188 871.034 485.654 870.451 485.654C869.869 485.654 869.397 485.188 869.397 484.612Z" fill="white"/>
<path d="M534.706 537.241C534.706 536.09 535.65 535.157 536.814 535.157C537.979 535.157 538.923 536.09 538.923 537.241C538.923 538.392 537.979 539.325 536.814 539.325C535.65 539.325 534.706 538.392 534.706 537.241Z" fill="white"/>
<path d="M236.91 600.291C236.91 599.14 237.854 598.207 239.018 598.207C240.183 598.207 241.127 599.14 241.127 600.291C241.127 601.443 240.183 602.376 239.018 602.376C237.854 602.376 236.91 601.443 236.91 600.291Z" fill="white"/>
<path d="M86.1674 705.028C86.1674 703.302 87.5833 701.902 89.3299 701.902C91.0765 701.902 92.4924 703.302 92.4924 705.028C92.4924 706.755 91.0765 708.155 89.3299 708.155C87.5833 708.155 86.1674 706.755 86.1674 705.028Z" fill="white"/>
<path d="M331.783 709.197C331.783 708.621 332.255 708.155 332.837 708.155C333.42 708.155 333.892 708.621 333.892 709.197C333.892 709.773 333.42 710.239 332.837 710.239C332.255 710.239 331.783 709.773 331.783 709.197Z" fill="white"/>
<path d="M138.348 608.629C138.348 608.053 138.82 607.587 139.402 607.587C139.984 607.587 140.456 608.053 140.456 608.629C140.456 609.204 139.984 609.671 139.402 609.671C138.82 609.671 138.348 609.204 138.348 608.629Z" fill="white"/>
<path d="M216.881 548.184C216.881 547.608 217.353 547.141 217.936 547.141C218.518 547.141 218.99 547.608 218.99 548.184C218.99 548.759 218.518 549.226 217.936 549.226C217.353 549.226 216.881 548.759 216.881 548.184Z" fill="white"/>
<path d="M229.004 752.968C229.004 752.392 229.476 751.925 230.058 751.925C230.641 751.925 231.112 752.392 231.112 752.968C231.112 753.543 230.641 754.01 230.058 754.01C229.476 754.01 229.004 753.543 229.004 752.968Z" fill="white"/>
<path d="M319.661 618.008C319.661 617.433 320.133 616.966 320.715 616.966C321.297 616.966 321.769 617.433 321.769 618.008C321.769 618.584 321.297 619.05 320.715 619.05C320.133 619.05 319.661 618.584 319.661 618.008Z" fill="white"/>
<path d="M735.521 556.521C735.521 555.945 735.993 555.479 736.575 555.479C737.157 555.479 737.629 555.945 737.629 556.521C737.629 557.096 737.157 557.563 736.575 557.563C735.993 557.563 735.521 557.096 735.521 556.521Z" fill="white"/>
<path d="M923.159 619.05C923.159 618.475 923.631 618.008 924.213 618.008C924.795 618.008 925.267 618.475 925.267 619.05C925.267 619.626 924.795 620.092 924.213 620.092C923.631 620.092 923.159 619.626 923.159 619.05Z" fill="white"/>
<path d="M425.602 643.02C425.602 641.581 426.782 640.415 428.238 640.415C429.693 640.415 430.873 641.581 430.873 643.02C430.873 644.459 429.693 645.625 428.238 645.625C426.782 645.625 425.602 644.459 425.602 643.02Z" fill="white"/>
<path d="M502.555 700.86C502.555 699.709 503.499 698.775 504.663 698.775C505.827 698.775 506.771 699.709 506.771 700.86C506.771 702.011 505.827 702.944 504.663 702.944C503.499 702.944 502.555 702.011 502.555 700.86Z" fill="white"/>
<path d="M536.287 670.116C536.287 667.814 538.175 665.947 540.504 665.947C542.833 665.947 544.721 667.814 544.721 670.116C544.721 672.418 542.833 674.285 540.504 674.285C538.175 674.285 536.287 672.418 536.287 670.116Z" fill="white"/>
<path d="M658.041 756.094C658.041 754.943 658.985 754.01 660.149 754.01C661.314 754.01 662.258 754.943 662.258 756.094C662.258 757.245 661.314 758.178 660.149 758.178C658.985 758.178 658.041 757.245 658.041 756.094Z" fill="white"/>
<path d="M819.852 621.656C819.852 619.641 821.504 618.008 823.542 618.008C825.58 618.008 827.231 619.641 827.231 621.656C827.231 623.67 825.58 625.303 823.542 625.303C821.504 625.303 819.852 623.67 819.852 621.656Z" fill="white"/>
<path d="M210.557 674.806C210.557 672.791 212.209 671.158 214.246 671.158C216.284 671.158 217.936 672.791 217.936 674.806C217.936 676.82 216.284 678.453 214.246 678.453C212.209 678.453 210.557 676.82 210.557 674.806Z" fill="white"/>
<path d="M717.6 508.582C716.436 508.582 715.492 509.515 715.492 510.666C715.492 511.817 716.436 512.75 717.6 512.75C718.765 512.75 719.709 511.817 719.709 510.666C719.709 509.515 718.765 508.582 717.6 508.582Z" fill="white"/>
<path d="M334.946 462.727C333.781 462.727 332.837 463.66 332.837 464.811C332.837 465.962 333.781 466.895 334.946 466.895C336.11 466.895 337.054 465.962 337.054 464.811C337.054 463.66 336.11 462.727 334.946 462.727Z" fill="white"/>
<path d="M26.6083 533.072C25.4438 533.072 24.5 534.005 24.5 535.157C24.5 536.308 25.4438 537.241 26.6083 537.241C27.7727 537.241 28.7165 536.308 28.7165 535.157C28.7165 534.005 27.7727 533.072 26.6083 533.072Z" fill="white"/>
<path d="M400.303 557.563C399.138 557.563 398.194 558.496 398.194 559.647C398.194 560.798 399.138 561.732 400.303 561.732C401.467 561.732 402.411 560.798 402.411 559.647C402.411 558.496 401.467 557.563 400.303 557.563Z" fill="white"/>
<path d="M451.956 763.389C449.627 763.389 447.739 765.256 447.739 767.558C447.739 769.86 449.627 771.726 451.956 771.726C454.285 771.726 456.172 769.86 456.172 767.558C456.172 765.256 454.285 763.389 451.956 763.389Z" fill="white"/>
<path d="M631.16 718.576C629.996 718.576 629.052 719.51 629.052 720.661C629.052 721.812 629.996 722.745 631.16 722.745C632.325 722.745 633.269 721.812 633.269 720.661C633.269 719.51 632.325 718.576 631.16 718.576Z" fill="white"/>
<path d="M760.293 697.733C759.711 697.733 759.239 698.2 759.239 698.775C759.239 699.351 759.711 699.818 760.293 699.818C760.875 699.818 761.347 699.351 761.347 698.775C761.347 698.2 760.875 697.733 760.293 697.733Z" fill="white"/>
<path d="M1410.1 4.1687C1410.1 6.47094 1408.21 8.33728 1405.88 8.33728C1403.55 8.33728 1401.66 6.47094 1401.66 4.1687C1401.66 1.86633 1403.55 0 1405.88 0C1408.21 0 1410.1 1.86633 1410.1 4.1687Z" fill="white"/>
<path d="M1197.69 17.7167C1198.85 17.7167 1199.79 16.7836 1199.79 15.6323C1199.79 14.4812 1198.85 13.5481 1197.69 13.5481C1196.52 13.5481 1195.58 14.4812 1195.58 15.6323C1195.58 16.7836 1196.52 17.7167 1197.69 17.7167Z" fill="white"/>
<path d="M1627.78 19.8011C1628.36 19.8011 1628.83 19.3345 1628.83 18.7589C1628.83 18.1833 1628.36 17.7168 1627.78 17.7168C1627.19 17.7168 1626.72 18.1833 1626.72 18.7589C1626.72 19.3345 1627.19 19.8011 1627.78 19.8011Z" fill="white"/>
<path d="M985.275 48.4603C986.149 48.4603 986.857 47.7605 986.857 46.8971C986.857 46.0337 986.149 45.3338 985.275 45.3338C984.402 45.3338 983.694 46.0337 983.694 46.8971C983.694 47.7605 984.402 48.4603 985.275 48.4603Z" fill="white"/>
<path d="M923.608 68.7824C924.772 68.7824 925.716 67.8492 925.716 66.6981C925.716 65.547 924.772 64.6137 923.608 64.6137C922.443 64.6137 921.5 65.547 921.5 66.6981C921.5 67.8492 922.443 68.7824 923.608 68.7824Z" fill="white"/>
<path d="M1231.67 179.084C1231.67 177.933 1232.62 177 1233.78 177C1234.95 177 1235.89 177.933 1235.89 179.084C1235.89 180.236 1234.95 181.169 1233.78 181.169C1232.62 181.169 1231.67 180.236 1231.67 179.084Z" fill="white"/>
<path d="M1769.29 197.843C1768.7 197.843 1768.23 198.31 1768.23 198.885C1768.23 199.461 1768.7 199.928 1769.29 199.928C1769.87 199.928 1770.34 199.461 1770.34 198.885C1770.34 198.31 1769.87 197.843 1769.29 197.843Z" fill="white"/>
<path d="M1580.59 358.857C1580.59 357.993 1581.3 357.293 1582.18 357.293C1583.05 357.293 1583.76 357.993 1583.76 358.857C1583.76 359.72 1583.05 360.42 1582.18 360.42C1581.3 360.42 1580.59 359.72 1580.59 358.857Z" fill="white"/>
<path d="M1435.65 249.43C1434.49 249.43 1433.54 250.363 1433.54 251.514C1433.54 252.665 1434.49 253.599 1435.65 253.599C1436.81 253.599 1437.76 252.665 1437.76 251.514C1437.76 250.363 1436.81 249.43 1435.65 249.43Z" fill="white"/>
<path d="M1137.85 312.481C1136.69 312.481 1135.75 313.414 1135.75 314.565C1135.75 315.716 1136.69 316.649 1137.85 316.649C1139.02 316.649 1139.96 315.716 1139.96 314.565C1139.96 313.414 1139.02 312.481 1137.85 312.481Z" fill="white"/>
<path d="M1038.24 321.86C1037.66 321.86 1037.18 322.327 1037.18 322.902C1037.18 323.478 1037.66 323.944 1038.24 323.944C1038.82 323.944 1039.29 323.478 1039.29 322.902C1039.29 322.327 1038.82 321.86 1038.24 321.86Z" fill="white"/>
<path d="M1116.77 261.415C1116.19 261.415 1115.72 261.881 1115.72 262.457C1115.72 263.032 1116.19 263.499 1116.77 263.499C1117.35 263.499 1117.83 263.032 1117.83 262.457C1117.83 261.881 1117.35 261.415 1116.77 261.415Z" fill="white"/>
<path d="M1218.5 332.281C1218.5 331.706 1218.97 331.239 1219.55 331.239C1220.13 331.239 1220.6 331.706 1220.6 332.281C1220.6 332.857 1220.13 333.324 1219.55 333.324C1218.97 333.324 1218.5 332.857 1218.5 332.281Z" fill="white"/>
<path d="M1634.36 270.794C1634.36 270.219 1634.83 269.752 1635.41 269.752C1635.99 269.752 1636.46 270.219 1636.46 270.794C1636.46 271.37 1635.99 271.836 1635.41 271.836C1634.83 271.836 1634.36 271.37 1634.36 270.794Z" fill="white"/>
<path d="M1821.99 333.324C1821.99 332.748 1822.47 332.282 1823.05 332.282C1823.63 332.282 1824.1 332.748 1824.1 333.324C1824.1 333.899 1823.63 334.366 1823.05 334.366C1822.47 334.366 1821.99 333.899 1821.99 333.324Z" fill="white"/>
<path d="M1324.44 357.293C1324.44 355.854 1325.62 354.688 1327.07 354.688C1328.53 354.688 1329.71 355.854 1329.71 357.293C1329.71 358.732 1328.53 359.899 1327.07 359.899C1325.62 359.899 1324.44 358.732 1324.44 357.293Z" fill="white"/>
<path d="M1439.34 380.221C1437.01 380.221 1435.12 382.087 1435.12 384.389C1435.12 386.692 1437.01 388.558 1439.34 388.558C1441.67 388.558 1443.56 386.692 1443.56 384.389C1443.56 382.087 1441.67 380.221 1439.34 380.221Z" fill="white"/>
<path d="M1718.69 335.929C1718.69 333.915 1720.34 332.282 1722.38 332.282C1724.42 332.282 1726.07 333.915 1726.07 335.929C1726.07 337.944 1724.42 339.577 1722.38 339.577C1720.34 339.577 1718.69 337.944 1718.69 335.929Z" fill="white"/>
<path d="M1109.39 389.079C1109.39 387.065 1111.04 385.432 1113.08 385.432C1115.12 385.432 1116.77 387.065 1116.77 389.079C1116.77 391.094 1115.12 392.727 1113.08 392.727C1111.04 392.727 1109.39 391.094 1109.39 389.079Z" fill="white"/>
<path d="M1853.62 263.499C1853.62 262.348 1854.56 261.415 1855.73 261.415C1856.89 261.415 1857.83 262.348 1857.83 263.499C1857.83 264.65 1856.89 265.583 1855.73 265.583C1854.56 265.583 1853.62 264.65 1853.62 263.499Z" fill="white"/>
<path d="M1614.33 224.939C1614.33 223.788 1615.27 222.855 1616.44 222.855C1617.6 222.855 1618.54 223.788 1618.54 224.939C1618.54 226.09 1617.6 227.024 1616.44 227.024C1615.27 227.024 1614.33 226.09 1614.33 224.939Z" fill="white"/>
<path d="M923.335 249.43C923.335 248.279 924.279 247.346 925.444 247.346C926.608 247.346 927.552 248.279 927.552 249.43C927.552 250.581 926.608 251.514 925.444 251.514C924.279 251.514 923.335 250.581 923.335 249.43Z" fill="white"/>
<path d="M1297.03 273.921C1297.03 272.77 1297.97 271.836 1299.14 271.836C1300.3 271.836 1301.25 272.77 1301.25 273.921C1301.25 275.072 1300.3 276.005 1299.14 276.005C1297.97 276.005 1297.03 275.072 1297.03 273.921Z" fill="white"/>
<path d="M1174.49 128.706C1175.37 128.706 1176.08 128.007 1176.08 127.143C1176.08 126.28 1175.37 125.58 1174.49 125.58C1173.62 125.58 1172.91 126.28 1172.91 127.143C1172.91 128.007 1173.62 128.706 1174.49 128.706Z" fill="white"/>
<path d="M987.384 288.157C987.966 288.157 988.438 287.69 988.438 287.114C988.438 286.539 987.966 286.072 987.384 286.072C986.801 286.072 986.329 286.539 986.329 287.114C986.329 287.69 986.801 288.157 987.384 288.157Z" fill="white"/>
<path d="M1321.02 236.57C1322.18 236.57 1323.13 235.637 1323.13 234.486C1323.13 233.334 1322.18 232.401 1321.02 232.401C1319.86 232.401 1318.91 233.334 1318.91 234.486C1318.91 235.637 1319.86 236.57 1321.02 236.57Z" fill="white"/>
<path d="M1618.82 173.519C1619.98 173.519 1620.92 172.586 1620.92 171.435C1620.92 170.284 1619.98 169.351 1618.82 169.351C1617.65 169.351 1616.71 170.284 1616.71 171.435C1616.71 172.586 1617.65 173.519 1618.82 173.519Z" fill="white"/>
<path d="M1768.51 69.8247C1770.25 69.8247 1771.67 68.4249 1771.67 66.6982C1771.67 64.9715 1770.25 63.5717 1768.51 63.5717C1766.76 63.5717 1765.34 64.9715 1765.34 66.6982C1765.34 68.4249 1766.76 69.8247 1768.51 69.8247Z" fill="white"/>
<path d="M1525 63.5717C1525.58 63.5717 1526.05 63.1051 1526.05 62.5295C1526.05 61.9539 1525.58 61.4874 1525 61.4874C1524.42 61.4874 1523.94 61.9539 1523.94 62.5295C1523.94 63.1051 1524.42 63.5717 1525 63.5717Z" fill="white"/>
<path d="M1718.43 164.14C1719.02 164.14 1719.49 163.673 1719.49 163.098C1719.49 162.522 1719.02 162.056 1718.43 162.056C1717.85 162.056 1717.38 162.522 1717.38 163.098C1717.38 163.673 1717.85 164.14 1718.43 164.14Z" fill="white"/>
<path d="M1639.9 224.585C1640.48 224.585 1640.95 224.119 1640.95 223.543C1640.95 222.967 1640.48 222.501 1639.9 222.501C1639.32 222.501 1638.85 222.967 1638.85 223.543C1638.85 224.119 1639.32 224.585 1639.9 224.585Z" fill="white"/>
<path d="M1537.12 154.761C1537.7 154.761 1538.17 154.294 1538.17 153.718C1538.17 153.143 1537.7 152.676 1537.12 152.676C1536.54 152.676 1536.07 153.143 1536.07 153.718C1536.07 154.294 1536.54 154.761 1537.12 154.761Z" fill="white"/>
<path d="M1121.26 216.248C1121.84 216.248 1122.31 215.781 1122.31 215.206C1122.31 214.63 1121.84 214.163 1121.26 214.163C1120.68 214.163 1120.21 214.63 1120.21 215.206C1120.21 215.781 1120.68 216.248 1121.26 216.248Z" fill="white"/>
<path d="M933.622 153.718C934.204 153.718 934.676 153.252 934.676 152.676C934.676 152.101 934.204 151.634 933.622 151.634C933.04 151.634 932.568 152.101 932.568 152.676C932.568 153.252 933.04 153.718 933.622 153.718Z" fill="white"/>
<path d="M1429.6 131.312C1431.05 131.312 1432.23 130.145 1432.23 128.707C1432.23 127.268 1431.05 126.101 1429.6 126.101C1428.14 126.101 1426.96 127.268 1426.96 128.707C1426.96 130.145 1428.14 131.312 1429.6 131.312Z" fill="white"/>
<path d="M1353.17 72.9511C1354.34 72.9511 1355.28 72.0179 1355.28 70.8668C1355.28 69.7157 1354.34 68.7824 1353.17 68.7824C1352.01 68.7824 1351.06 69.7157 1351.06 70.8668C1351.06 72.0179 1352.01 72.9511 1353.17 72.9511Z" fill="white"/>
<path d="M1317.33 105.779C1319.66 105.779 1321.55 103.913 1321.55 101.61C1321.55 99.3082 1319.66 97.4418 1317.33 97.4418C1315 97.4418 1313.11 99.3082 1313.11 101.61C1313.11 103.913 1315 105.779 1317.33 105.779Z" fill="white"/>
<path d="M1034.29 153.718C1036.33 153.718 1037.98 152.085 1037.98 150.071C1037.98 148.056 1036.33 146.423 1034.29 146.423C1032.26 146.423 1030.6 148.056 1030.6 150.071C1030.6 152.085 1032.26 153.718 1034.29 153.718Z" fill="white"/>
<path d="M1643.59 100.568C1645.63 100.568 1647.28 98.9353 1647.28 96.9207C1647.28 94.9063 1645.63 93.2733 1643.59 93.2733C1641.55 93.2733 1639.9 94.9063 1639.9 96.9207C1639.9 98.9353 1641.55 100.568 1643.59 100.568Z" fill="white"/>
<path d="M1142.34 261.061C1142.34 262.212 1141.4 263.145 1140.23 263.145C1139.07 263.145 1138.13 262.212 1138.13 261.061C1138.13 259.909 1139.07 258.976 1140.23 258.976C1141.4 258.976 1142.34 259.909 1142.34 261.061Z" fill="white"/>
<path d="M1525 306.916C1525 308.067 1524.05 309 1522.89 309C1521.72 309 1520.78 308.067 1520.78 306.916C1520.78 305.764 1521.72 304.831 1522.89 304.831C1524.05 304.831 1525 305.765 1525 306.916Z" fill="white"/>
<path d="M1833.34 236.57C1833.34 237.721 1832.39 238.654 1831.23 238.654C1830.06 238.654 1829.12 237.721 1829.12 236.57C1829.12 235.419 1830.06 234.486 1831.23 234.486C1832.39 234.486 1833.34 235.419 1833.34 236.57Z" fill="white"/>
<path d="M1459.64 212.079C1459.64 213.23 1458.7 214.163 1457.53 214.163C1456.37 214.163 1455.42 213.23 1455.42 212.079C1455.42 210.928 1456.37 209.995 1457.53 209.995C1458.7 209.995 1459.64 210.928 1459.64 212.079Z" fill="white"/>
<path d="M1228.78 51.0658C1228.78 52.2169 1227.84 53.1501 1226.67 53.1501C1225.51 53.1501 1224.57 52.2169 1224.57 51.0658C1224.57 49.9146 1225.51 48.9814 1226.67 48.9814C1227.84 48.9814 1228.78 49.9146 1228.78 51.0658Z" fill="white"/>
<path d="M1098.6 72.951C1098.6 73.5266 1098.12 73.9931 1097.54 73.9931C1096.96 73.9931 1096.49 73.5266 1096.49 72.951C1096.49 72.3755 1096.96 71.9089 1097.54 71.9089C1098.12 71.9089 1098.6 72.3755 1098.6 72.951Z" fill="white"/>
<path d="M1405.88 387.337C1408.21 387.337 1410.1 385.471 1410.1 383.169C1410.1 380.866 1408.21 379 1405.88 379C1403.55 379 1401.66 380.866 1401.66 383.169C1401.66 385.471 1403.55 387.337 1405.88 387.337Z" fill="white"/>
<path d="M1199.79 394.632C1199.79 395.783 1198.85 396.716 1197.69 396.716C1196.52 396.716 1195.58 395.783 1195.58 394.632C1195.58 393.481 1196.52 392.548 1197.69 392.548C1198.85 392.548 1199.79 393.481 1199.79 394.632Z" fill="white"/>
<path d="M1628.83 397.759C1628.83 398.334 1628.36 398.801 1627.78 398.801C1627.19 398.801 1626.72 398.334 1626.72 397.759C1626.72 397.183 1627.19 396.717 1627.78 396.717C1628.36 396.717 1628.83 397.183 1628.83 397.759Z" fill="white"/>
<path d="M986.857 425.897C986.857 426.76 986.149 427.46 985.275 427.46C984.402 427.46 983.694 426.76 983.694 425.897C983.694 425.033 984.402 424.334 985.275 424.334C986.149 424.334 986.857 425.033 986.857 425.897Z" fill="white"/>
<path d="M925.716 445.698C925.716 446.849 924.772 447.782 923.608 447.782C922.443 447.782 921.5 446.849 921.5 445.698C921.5 444.547 922.443 443.614 923.608 443.614C924.772 443.614 925.716 444.547 925.716 445.698Z" fill="white"/>
<path d="M1233.78 556C1232.62 556 1231.67 556.933 1231.67 558.084C1231.67 559.235 1232.62 560.168 1233.78 560.168C1234.95 560.168 1235.89 559.235 1235.89 558.084C1235.89 556.933 1234.95 556 1233.78 556Z" fill="white"/>
<path d="M1768.23 577.885C1768.23 577.31 1768.7 576.843 1769.29 576.843C1769.87 576.843 1770.34 577.31 1770.34 577.885C1770.34 578.461 1769.87 578.927 1769.29 578.927C1768.7 578.927 1768.23 578.461 1768.23 577.885Z" fill="white"/>
<path d="M1582.18 736.293C1581.3 736.293 1580.59 736.993 1580.59 737.856C1580.59 738.72 1581.3 739.42 1582.18 739.42C1583.05 739.42 1583.76 738.72 1583.76 737.856C1583.76 736.993 1583.05 736.293 1582.18 736.293Z" fill="white"/>
<path d="M1433.54 630.514C1433.54 629.363 1434.49 628.43 1435.65 628.43C1436.81 628.43 1437.76 629.363 1437.76 630.514C1437.76 631.665 1436.81 632.598 1435.65 632.598C1434.49 632.598 1433.54 631.665 1433.54 630.514Z" fill="white"/>
<path d="M1135.75 693.565C1135.75 692.413 1136.69 691.48 1137.85 691.48C1139.02 691.48 1139.96 692.413 1139.96 693.565C1139.96 694.716 1139.02 695.649 1137.85 695.649C1136.69 695.649 1135.75 694.716 1135.75 693.565Z" fill="white"/>
<path d="M1037.18 701.902C1037.18 701.326 1037.66 700.86 1038.24 700.86C1038.82 700.86 1039.29 701.326 1039.29 701.902C1039.29 702.477 1038.82 702.944 1038.24 702.944C1037.66 702.944 1037.18 702.477 1037.18 701.902Z" fill="white"/>
<path d="M1115.72 641.457C1115.72 640.881 1116.19 640.415 1116.77 640.415C1117.35 640.415 1117.83 640.881 1117.83 641.457C1117.83 642.032 1117.35 642.499 1116.77 642.499C1116.19 642.499 1115.72 642.032 1115.72 641.457Z" fill="white"/>
<path d="M1219.55 710.239C1218.97 710.239 1218.5 710.706 1218.5 711.281C1218.5 711.857 1218.97 712.324 1219.55 712.324C1220.13 712.324 1220.6 711.857 1220.6 711.281C1220.6 710.706 1220.13 710.239 1219.55 710.239Z" fill="white"/>
<path d="M1635.41 648.752C1634.83 648.752 1634.36 649.219 1634.36 649.794C1634.36 650.37 1634.83 650.836 1635.41 650.836C1635.99 650.836 1636.46 650.37 1636.46 649.794C1636.46 649.219 1635.99 648.752 1635.41 648.752Z" fill="white"/>
<path d="M1823.05 711.281C1822.47 711.281 1821.99 711.748 1821.99 712.324C1821.99 712.899 1822.47 713.366 1823.05 713.366C1823.63 713.366 1824.1 712.899 1824.1 712.324C1824.1 711.748 1823.63 711.281 1823.05 711.281Z" fill="white"/>
<path d="M1327.07 733.688C1325.62 733.688 1324.44 734.854 1324.44 736.293C1324.44 737.732 1325.62 738.899 1327.07 738.899C1328.53 738.899 1329.71 737.732 1329.71 736.293C1329.71 734.854 1328.53 733.688 1327.07 733.688Z" fill="white"/>
<path d="M1435.12 763.389C1435.12 761.087 1437.01 759.221 1439.34 759.221C1441.67 759.221 1443.56 761.087 1443.56 763.389C1443.56 765.692 1441.67 767.558 1439.34 767.558C1437.01 767.558 1435.12 765.692 1435.12 763.389Z" fill="white"/>
<path d="M1722.38 711.281C1720.34 711.281 1718.69 712.914 1718.69 714.929C1718.69 716.943 1720.34 718.576 1722.38 718.576C1724.42 718.576 1726.07 716.943 1726.07 714.929C1726.07 712.914 1724.42 711.281 1722.38 711.281Z" fill="white"/>
<path d="M1113.08 764.431C1111.04 764.431 1109.39 766.064 1109.39 768.079C1109.39 770.093 1111.04 771.726 1113.08 771.726C1115.12 771.726 1116.77 770.093 1116.77 768.079C1116.77 766.064 1115.12 764.431 1113.08 764.431Z" fill="white"/>
<path d="M1855.73 640.415C1854.56 640.415 1853.62 641.348 1853.62 642.499C1853.62 643.65 1854.56 644.583 1855.73 644.583C1856.89 644.583 1857.83 643.65 1857.83 642.499C1857.83 641.348 1856.89 640.415 1855.73 640.415Z" fill="white"/>
<path d="M1616.44 601.855C1615.27 601.855 1614.33 602.788 1614.33 603.939C1614.33 605.09 1615.27 606.023 1616.44 606.023C1617.6 606.023 1618.54 605.09 1618.54 603.939C1618.54 602.788 1617.6 601.855 1616.44 601.855Z" fill="white"/>
<path d="M925.444 626.345C924.279 626.345 923.335 627.279 923.335 628.43C923.335 629.581 924.279 630.514 925.444 630.514C926.608 630.514 927.552 629.581 927.552 628.43C927.552 627.279 926.608 626.345 925.444 626.345Z" fill="white"/>
<path d="M1299.14 650.836C1297.97 650.836 1297.03 651.769 1297.03 652.92C1297.03 654.072 1297.97 655.005 1299.14 655.005C1300.3 655.005 1301.25 654.072 1301.25 652.92C1301.25 651.769 1300.3 650.836 1299.14 650.836Z" fill="white"/>
<path d="M1176.08 506.143C1176.08 507.006 1175.37 507.706 1174.49 507.706C1173.62 507.706 1172.91 507.006 1172.91 506.143C1172.91 505.28 1173.62 504.58 1174.49 504.58C1175.37 504.58 1176.08 505.28 1176.08 506.143Z" fill="white"/>
<path d="M988.438 666.114C988.438 666.69 987.966 667.156 987.384 667.156C986.801 667.156 986.329 666.69 986.329 666.114C986.329 665.539 986.801 665.072 987.384 665.072C987.966 665.072 988.438 665.539 988.438 666.114Z" fill="white"/>
<path d="M1323.13 613.485C1323.13 614.637 1322.18 615.57 1321.02 615.57C1319.86 615.57 1318.91 614.637 1318.91 613.485C1318.91 612.334 1319.86 611.401 1321.02 611.401C1322.18 611.401 1323.13 612.334 1323.13 613.485Z" fill="white"/>
<path d="M1620.92 550.435C1620.92 551.586 1619.98 552.519 1618.82 552.519C1617.65 552.519 1616.71 551.586 1616.71 550.435C1616.71 549.284 1617.65 548.351 1618.82 548.351C1619.98 548.351 1620.92 549.284 1620.92 550.435Z" fill="white"/>
<path d="M1771.67 445.698C1771.67 447.425 1770.25 448.824 1768.51 448.824C1766.76 448.824 1765.34 447.425 1765.34 445.698C1765.34 443.971 1766.76 442.572 1768.51 442.572C1770.25 442.572 1771.67 443.971 1771.67 445.698Z" fill="white"/>
<path d="M1526.05 441.529C1526.05 442.105 1525.58 442.572 1525 442.572C1524.42 442.572 1523.94 442.105 1523.94 441.529C1523.94 440.954 1524.42 440.487 1525 440.487C1525.58 440.487 1526.05 440.954 1526.05 441.529Z" fill="white"/>
<path d="M1719.49 542.098C1719.49 542.673 1719.02 543.14 1718.43 543.14C1717.85 543.14 1717.38 542.673 1717.38 542.098C1717.38 541.522 1717.85 541.056 1718.43 541.056C1719.02 541.056 1719.49 541.522 1719.49 542.098Z" fill="white"/>
<path d="M1640.95 602.543C1640.95 603.118 1640.48 603.585 1639.9 603.585C1639.32 603.585 1638.85 603.118 1638.85 602.543C1638.85 601.967 1639.32 601.501 1639.9 601.501C1640.48 601.501 1640.95 601.967 1640.95 602.543Z" fill="white"/>
<path d="M1538.17 532.718C1538.17 533.294 1537.7 533.76 1537.12 533.76C1536.54 533.76 1536.07 533.294 1536.07 532.718C1536.07 532.143 1536.54 531.676 1537.12 531.676C1537.7 531.676 1538.17 532.143 1538.17 532.718Z" fill="white"/>
<path d="M1122.31 594.205C1122.31 594.781 1121.84 595.248 1121.26 595.248C1120.68 595.248 1120.21 594.781 1120.21 594.205C1120.21 593.63 1120.68 593.163 1121.26 593.163C1121.84 593.163 1122.31 593.63 1122.31 594.205Z" fill="white"/>
<path d="M934.676 531.676C934.676 532.251 934.204 532.718 933.622 532.718C933.04 532.718 932.568 532.251 932.568 531.676C932.568 531.1 933.04 530.634 933.622 530.634C934.204 530.634 934.676 531.1 934.676 531.676Z" fill="white"/>
<path d="M1432.23 507.706C1432.23 509.145 1431.05 510.312 1429.6 510.312C1428.14 510.312 1426.96 509.145 1426.96 507.706C1426.96 506.267 1428.14 505.101 1429.6 505.101C1431.05 505.101 1432.23 506.267 1432.23 507.706Z" fill="white"/>
<path d="M1355.28 449.867C1355.28 451.018 1354.34 451.951 1353.17 451.951C1352.01 451.951 1351.06 451.018 1351.06 449.867C1351.06 448.715 1352.01 447.782 1353.17 447.782C1354.34 447.782 1355.28 448.715 1355.28 449.867Z" fill="white"/>
<path d="M1321.55 480.61C1321.55 482.912 1319.66 484.779 1317.33 484.779C1315 484.779 1313.11 482.912 1313.11 480.61C1313.11 478.308 1315 476.442 1317.33 476.442C1319.66 476.442 1321.55 478.308 1321.55 480.61Z" fill="white"/>
<path d="M1037.98 529.071C1037.98 531.085 1036.33 532.718 1034.29 532.718C1032.26 532.718 1030.6 531.085 1030.6 529.071C1030.6 527.056 1032.26 525.423 1034.29 525.423C1036.33 525.423 1037.98 527.056 1037.98 529.071Z" fill="white"/>
<path d="M1647.28 475.921C1647.28 477.935 1645.63 479.568 1643.59 479.568C1641.55 479.568 1639.9 477.935 1639.9 475.921C1639.9 473.906 1641.55 472.273 1643.59 472.273C1645.63 472.273 1647.28 473.906 1647.28 475.921Z" fill="white"/>
<path d="M1140.23 642.145C1141.4 642.145 1142.34 641.211 1142.34 640.06C1142.34 638.909 1141.4 637.976 1140.23 637.976C1139.07 637.976 1138.13 638.909 1138.13 640.06C1138.13 641.211 1139.07 642.145 1140.23 642.145Z" fill="white"/>
<path d="M1522.89 688C1524.05 688 1525 687.067 1525 685.915C1525 684.764 1524.05 683.831 1522.89 683.831C1521.72 683.831 1520.78 684.764 1520.78 685.915C1520.78 687.067 1521.72 688 1522.89 688Z" fill="white"/>
<path d="M1831.23 617.654C1832.39 617.654 1833.34 616.721 1833.34 615.57C1833.34 614.419 1832.39 613.485 1831.23 613.485C1830.06 613.485 1829.12 614.419 1829.12 615.57C1829.12 616.721 1830.06 617.654 1831.23 617.654Z" fill="white"/>
<path d="M1457.53 593.163C1458.7 593.163 1459.64 592.23 1459.64 591.079C1459.64 589.928 1458.7 588.995 1457.53 588.995C1456.37 588.995 1455.42 589.928 1455.42 591.079C1455.42 592.23 1456.37 593.163 1457.53 593.163Z" fill="white"/>
<path d="M1226.67 432.15C1227.84 432.15 1228.78 431.217 1228.78 430.066C1228.78 428.914 1227.84 427.981 1226.67 427.981C1225.51 427.981 1224.57 428.914 1224.57 430.066C1224.57 431.217 1225.51 432.15 1226.67 432.15Z" fill="white"/>
<path d="M1097.54 452.993C1098.12 452.993 1098.6 452.526 1098.6 451.951C1098.6 451.375 1098.12 450.909 1097.54 450.909C1096.96 450.909 1096.49 451.375 1096.49 451.951C1096.49 452.526 1096.96 452.993 1097.54 452.993Z" fill="white"/>
</svg>
