<svg width="1920" height="1022" viewBox="0 0 1920 1022" fill="none" xmlns="http://www.w3.org/2000/svg">
<g filter="url(#filter0_d_30_937)">
<path fill-rule="evenodd" clip-rule="evenodd" d="M28.7115 73.5463C-17.1842 63.2934 -31.4574 76.2511 -40.2802 84.2607L-40.2808 84.2612C-40.4863 84.4478 -40.6889 84.6317 -40.8889 84.8126C-41.1387 104.687 -40.8893 143.637 -40.8893 143.637L-39.9573 143.643V888.015C-31.0341 881.327 -16.1531 871.629 28.0474 879.851C41.5922 882.371 55.0778 885.14 68.3743 887.871C112.729 896.978 154.979 905.654 190.301 903.194C194.336 902.913 198.294 902.639 202.176 902.37C242.471 899.581 274.595 897.358 299.369 893.727C302.098 893.327 304.86 892.913 307.663 892.493C332.752 888.734 361.185 884.475 400.087 885.015C443.335 885.615 456.351 886.493 479.186 892.911C502.021 899.328 533.868 895.587 549.566 891.447C554.485 890.15 559.729 887.676 565.848 884.789C579.254 878.465 596.86 870.16 624.449 867.909C664.628 864.632 705.295 863.628 715.114 869.168C724.932 874.707 750.365 881.684 782.15 882.125C792.65 882.271 805.211 881.551 817.884 880.825C843.573 879.353 869.724 877.855 880.109 883.485C895.618 891.892 932.995 901.649 955.959 899.528C966.118 898.589 978.042 895.696 990.029 892.787C1005.14 889.122 1020.35 885.431 1032.26 885.596C1049.53 885.836 1064.37 888.547 1083.7 892.077C1088.29 892.914 1093.13 893.798 1098.31 894.705C1105.34 895.936 1114.78 898.555 1125.66 901.574C1156.63 910.169 1199.31 922.012 1231.44 914.332C1246.03 910.844 1251.66 907.882 1256.47 905.353C1265.98 900.355 1272.27 897.048 1338.05 894.721C1389.64 892.896 1417.96 887.535 1442.61 882.87C1465.3 878.576 1484.87 874.872 1516.59 875.062C1535.2 875.173 1556.66 874.993 1578.87 874.807C1635.66 874.331 1697.4 873.813 1729.18 878.013C1758.91 881.942 1789.42 881.152 1818.9 880.389C1833.25 880.018 1847.36 879.653 1861.01 879.842C1902.7 880.421 1924.28 893.891 1936.75 903.03C1940.88 906.051 1947.94 910.308 1961 908.224L1961 120H1959.52L1959.52 107.607C1946.65 110.074 1941.04 105.142 1936.94 101.528L1936.76 101.372C1924.29 90.4005 1902.72 74.23 1861.05 73.5354C1847.4 73.308 1833.29 73.7463 1818.95 74.1923C1789.48 75.1079 1758.98 76.0558 1729.26 71.339C1697.49 66.2971 1635.77 66.9188 1579 67.4907C1556.79 67.7144 1535.34 67.9304 1516.74 67.7969C1485.03 67.5692 1465.47 72.0153 1442.79 77.1704C1418.15 82.7699 1389.83 89.2059 1338.27 91.397C1272.51 94.1911 1266.22 98.1609 1256.71 104.16C1251.9 107.197 1246.27 110.753 1231.69 114.94C1199.57 124.16 1156.91 109.943 1125.94 99.6243C1115.07 95.9992 1105.63 92.8555 1098.61 91.3783C1093.43 90.2888 1088.59 89.228 1084 88.2226C1064.68 83.9853 1049.84 80.7308 1032.58 80.4431C1020.67 80.2446 1005.47 84.6751 990.363 89.0758C978.379 92.5676 966.46 96.0405 956.304 97.1673C933.348 99.7142 895.984 88.0012 880.481 77.9081C870.099 71.1492 843.957 72.948 818.276 74.7151C805.608 75.5869 793.051 76.4509 782.555 76.2759C750.781 75.7463 725.357 67.3711 715.542 60.7208C705.727 54.0704 665.074 55.2761 624.908 59.2102C597.329 61.9114 579.729 71.8819 566.327 79.4744C560.211 82.9396 554.968 85.9094 550.051 87.4668C534.359 92.4365 502.522 96.9279 479.695 89.2236C456.868 81.5194 443.857 80.4656 400.623 79.745C361.734 79.0968 333.312 84.2103 308.231 88.7225C305.429 89.2266 302.668 89.7232 299.94 90.2034C275.174 94.5623 243.06 97.2318 202.778 100.58L202.773 100.581C198.894 100.903 194.94 101.232 190.909 101.569C155.599 104.522 113.364 94.1071 69.0248 83.1733C55.7328 79.8955 42.2518 76.5712 28.7115 73.5463Z" fill="white"/>
</g>
<defs>
<filter id="filter0_d_30_937" x="-96" y="0.995483" width="2162" height="1020.82" filterUnits="userSpaceOnUse" color-interpolation-filters="sRGB">
<feFlood flood-opacity="0" result="BackgroundImageFix"/>
<feColorMatrix in="SourceAlpha" type="matrix" values="0 0 0 0 0 0 0 0 0 0 0 0 0 0 0 0 0 0 127 0" result="hardAlpha"/>
<feOffset dx="25" dy="25"/>
<feGaussianBlur stdDeviation="40"/>
<feComposite in2="hardAlpha" operator="out"/>
<feColorMatrix type="matrix" values="0 0 0 0 0 0 0 0 0 0 0 0 0 0 0 0 0 0 0.33 0"/>
<feBlend mode="normal" in2="BackgroundImageFix" result="effect1_dropShadow_30_937"/>
<feBlend mode="normal" in="SourceGraphic" in2="effect1_dropShadow_30_937" result="shape"/>
</filter>
</defs>
</svg>
