<svg width="1920" height="32" viewBox="0 0 1920 32" fill="none" xmlns="http://www.w3.org/2000/svg">
<path fill-rule="evenodd" clip-rule="evenodd" d="M1920 0V19.2295C1907.07 16.2544 1889.23 13.732 1864.05 13.5576C1850.4 13.463 1836.3 13.6452 1821.95 13.8305C1792.49 14.211 1761.99 14.6049 1732.27 12.6448C1700.5 10.5496 1638.78 10.808 1582.01 11.0456C1559.8 11.1386 1538.35 11.2284 1519.75 11.1729C1488.03 11.0783 1468.47 12.9259 1445.79 15.0681C1421.15 17.395 1392.84 20.0696 1341.27 20.9801C1275.51 22.1412 1269.22 23.7909 1259.72 26.284C1254.91 27.5458 1249.28 29.0236 1234.69 30.7635C1202.58 34.5951 1159.91 28.6869 1128.95 24.399C1118.07 22.8926 1108.64 21.5862 1101.61 20.9723C1096.43 20.5196 1091.6 20.0788 1087.01 19.6611L1087.01 19.6609C1067.69 17.9001 1052.85 16.5477 1035.58 16.4281C1023.68 16.3456 1008.47 18.1868 993.368 20.0155C981.384 21.4665 969.465 22.9097 959.309 23.378C936.353 24.4364 898.989 19.5689 883.486 15.3746C873.104 12.5659 846.962 13.3135 821.281 14.0478C808.612 14.4101 796.056 14.7691 785.559 14.6964C753.785 14.4763 728.362 10.9959 718.547 8.23232C708.731 5.46872 668.079 5.96975 627.913 7.60458C600.334 8.7271 582.734 12.8704 569.332 16.0256C563.215 17.4655 557.973 18.6997 553.056 19.3469C537.363 21.4121 505.527 23.2785 482.7 20.0769C459.873 16.8754 446.861 16.4374 403.628 16.138C364.739 15.8687 336.316 17.9936 311.236 19.8687C308.434 20.0782 305.673 20.2845 302.945 20.4841C278.178 22.2954 246.064 23.4048 205.782 24.7963L205.772 24.7966C201.896 24.9306 197.943 25.0671 193.914 25.2071C158.604 26.4344 116.369 22.1063 72.0296 17.5627C58.7376 16.2006 45.2566 14.8191 31.7163 13.5621C18.8519 12.3678 8.47187 11.9314 0 11.995V0H1920Z" fill="white"/>
</svg>
