<svg width="1920" height="32" viewBox="0 0 1920 32" fill="none" xmlns="http://www.w3.org/2000/svg">
<path fill-rule="evenodd" clip-rule="evenodd" d="M0.000244141 31.9999L1920 31.9999V13.9702C1906.95 10.6812 1888.66 7.81251 1862.36 7.62205C1848.71 7.5232 1834.61 7.71368 1820.26 7.90748C1790.79 8.30539 1760.3 8.7173 1730.57 6.66756C1698.81 4.47657 1637.08 4.74675 1580.31 4.99525C1558.11 5.09246 1536.66 5.18635 1518.05 5.12832C1486.34 5.02939 1466.78 6.96148 1444.1 9.20164C1419.46 11.635 1391.15 14.4318 1339.58 15.3839C1273.82 16.5981 1267.53 18.3232 1258.03 20.9303C1253.22 22.2498 1247.58 23.7952 1233 25.6147C1200.88 29.6214 1158.22 23.4431 1127.26 18.9592C1116.38 17.3839 1106.95 16.0177 1099.92 15.3758C1094.74 14.9023 1089.9 14.4414 1085.32 14.0044C1065.99 12.1631 1051.15 10.7488 1033.89 10.6238C1021.98 10.5376 1006.78 12.4629 991.676 14.3752C979.692 15.8926 967.772 17.4018 957.616 17.8915C934.661 18.9982 897.296 13.9083 881.793 9.5222C871.412 6.58509 845.27 7.36679 819.589 8.13469C806.92 8.51351 794.364 8.88897 783.867 8.81294C752.093 8.58281 726.67 4.94329 716.854 2.05333C707.039 -0.836622 666.386 -0.31268 626.22 1.39689C598.641 2.57073 581.042 6.90351 567.64 10.2029C561.523 11.7087 556.281 12.9992 551.363 13.676C535.671 15.8356 503.834 17.7874 481.007 14.4395C458.18 11.0916 445.169 10.6336 401.935 10.3205C363.047 10.0388 334.624 12.2609 309.543 14.2217C306.741 14.4408 303.981 14.6566 301.252 14.8652C276.486 16.7594 244.372 17.9195 204.09 19.3746C200.21 19.5148 196.254 19.6577 192.222 19.8042C156.911 21.0876 114.676 16.5616 70.3372 11.8102C57.0452 10.3859 43.5642 8.94124 30.0239 7.62678C18.0037 6.45988 8.15249 5.98483 0.000244141 5.98181V31.9999Z" fill="white"/>
</svg>
